<svg xmlns="http://www.w3.org/2000/svg" viewBox="0 0 530.8 120" width="530.8" height="120">
  <defs>
    <linearGradient id="g" x1="0" y1="0" x2="1" y2="1">
      <stop offset="0%" stop-color="#4A90E2"/>
      <stop offset="50%" stop-color="#9B59B6"/>
      <stop offset="100%" stop-color="#F39C12"/>
    </linearGradient>
  </defs>
  <circle cx="60.0" cy="60.0" r="52.0" fill="#0a1128" stroke="url(#g)" stroke-width="6.0"/>
  <path d="M 36.77 79.60 H 47.50 V 64.45 C 47.50 61.55 47.24 55.05 47.13 49.48 C 48.42 55.24 50.03 61.37 50.98 64.45 L 55.61 79.60 H 64.45 L 69.00 64.45 C 69.97 61.26 71.63 54.79 72.89 48.82 C 72.79 54.53 72.50 61.45 72.50 64.45 V 79.60 H 83.23 V 40.40 H 66.42 L 62.95 52.66 C 62.13 55.53 60.95 61.55 60.03 66.68 C 59.13 61.55 57.90 55.53 57.08 52.66 L 53.55 40.40 H 36.77 Z" fill="#ffffff"/>
  <path d="M 190.25 73.95 C 197.14 73.95 201.29 70.97 201.29 65.58 C 201.29 61.44 198.79 58.52 192.77 57.24 L 190.54 56.76 C 187.96 56.22 186.89 55.47 186.89 54.17 C 186.89 52.96 187.89 52.08 190.18 52.08 C 192.57 52.08 193.70 53.13 193.83 54.90 H 200.93 C 200.89 49.56 196.78 46.01 190.18 46.01 C 183.70 46.01 179.17 49.51 179.17 54.68 C 179.17 58.94 182.11 61.33 186.92 62.36 L 189.66 62.94 C 192.68 63.58 193.76 64.35 193.76 65.58 C 193.76 66.93 192.50 67.88 190.14 67.88 C 187.29 67.88 185.62 66.54 185.50 64.04 H 178.48 C 178.51 70.88 183.14 73.95 190.25 73.95 Z M 208.24 52.34 H 216.38 V 73.62 H 223.76 V 52.34 H 231.90 V 46.38 H 208.24 Z M 251.28 73.95 C 258.28 73.95 263.05 70.05 263.05 63.82 V 46.38 H 255.67 V 63.20 C 255.67 65.74 253.84 67.55 251.28 67.55 C 248.76 67.55 246.93 65.74 246.93 63.20 V 46.38 H 239.54 V 63.82 C 239.54 70.05 244.24 73.95 251.28 73.95 Z M 281.92 73.62 C 290.21 73.62 295.45 68.52 295.45 60.02 C 295.45 51.50 290.21 46.38 281.82 46.38 H 271.43 V 73.62 Z M 278.82 67.33 V 52.67 H 281.41 C 285.69 52.67 288.03 54.31 288.03 60.02 C 288.03 65.70 285.69 67.33 281.63 67.33 Z M 310.74 46.38 H 303.35 V 73.62 H 310.74 Z M 331.88 73.99 C 339.28 73.99 345.11 69.10 345.11 60.02 C 345.11 50.91 339.28 46.01 331.88 46.01 C 324.44 46.01 318.64 50.91 318.64 60.02 C 318.64 69.05 324.44 73.99 331.88 73.99 Z M 331.88 67.55 C 328.22 67.55 326.25 64.90 326.25 60.02 C 326.25 55.12 328.22 52.45 331.88 52.45 C 335.55 52.45 337.51 55.12 337.51 60.02 C 337.51 64.90 335.55 67.55 331.88 67.55 Z M 365.34 73.62 H 372.80 V 63.09 C 372.80 61.08 372.62 56.56 372.54 52.69 C 373.44 56.69 374.56 60.95 375.21 63.09 L 378.43 73.62 H 384.57 L 387.74 63.09 C 388.41 60.88 389.56 56.38 390.44 52.23 C 390.37 56.20 390.17 61.01 390.17 63.09 V 73.62 H 397.63 V 46.38 H 385.94 L 383.53 54.90 C 382.96 56.89 382.14 61.08 381.50 64.64 C 380.88 61.08 380.02 56.89 379.45 54.90 L 377.00 46.38 H 365.34 Z M 413.39 46.38 H 406.00 V 73.62 H 413.39 Z M 434.42 73.99 C 442.41 73.99 446.45 68.32 446.81 63.67 H 439.32 C 438.95 66.00 437.31 67.55 434.60 67.55 C 430.98 67.55 428.90 65.01 428.90 60.02 C 428.90 55.27 430.93 52.45 434.64 52.45 C 437.38 52.45 438.99 54.00 439.28 56.33 H 446.77 C 446.10 49.74 441.20 46.01 434.42 46.01 C 427.09 46.01 421.29 50.91 421.29 60.02 C 421.29 69.07 426.94 73.99 434.42 73.99 Z M 454.62 73.62 H 462.01 V 62.69 H 471.81 V 73.62 H 479.19 V 46.38 H 471.81 V 56.73 H 462.01 V 46.38 H 454.62 Z M 500.33 73.99 C 507.73 73.99 513.57 69.10 513.57 60.02 C 513.57 50.91 507.73 46.01 500.33 46.01 C 492.89 46.01 487.09 50.91 487.09 60.02 C 487.09 69.05 492.89 73.99 500.33 73.99 Z M 500.33 67.55 C 496.67 67.55 494.70 64.90 494.70 60.02 C 494.70 55.12 496.67 52.45 500.33 52.45 C 504.00 52.45 505.96 55.12 505.96 60.02 C 505.96 64.90 504.00 67.55 500.33 67.55 Z" fill="#111111"/>
</svg>