<svg xmlns="http://www.w3.org/2000/svg" viewBox="0 0 512 512" width="512" height="512">
  <defs>
    <linearGradient id="g" x1="0" y1="0" x2="1" y2="1">
      <stop offset="0%" stop-color="#4A90E2"/>
      <stop offset="50%" stop-color="#9B59B6"/>
      <stop offset="100%" stop-color="#F39C12"/>
    </linearGradient>
  </defs>
  <circle cx="256.0" cy="256.0" r="230.4" fill="#0a1128" stroke="url(#g)" stroke-width="29.7"/>
  <path d="M 153.77 342.25 H 201.01 V 275.57 C 201.01 262.83 199.85 234.23 199.39 209.69 C 205.06 235.04 212.12 262.02 216.29 275.57 L 236.67 342.25 H 275.57 L 295.60 275.57 C 299.88 261.56 307.17 233.08 312.73 206.80 C 312.27 231.92 310.99 262.37 310.99 275.57 V 342.25 H 358.23 V 169.75 H 284.25 L 268.97 223.70 C 265.38 236.32 260.17 262.83 256.12 285.41 C 252.18 262.83 246.74 236.32 243.15 223.70 L 227.64 169.75 H 153.77 Z" fill="#ffffff"/>
</svg>